Coordinates
version=1
nRows=15
nColumns=42
inDegrees=yes

Units are S.I. units (second, meters, Newtons, ...)
If the header above contains a line with 'inDegrees', this indicates whether rotational values are in degrees (yes) or radians (no).

endheader
time	pelvis_tilt	pelvis_list	pelvis_rotation	pelvis_tx	pelvis_ty	pelvis_tz	hip_flexion_r	hip_adduction_r	hip_rotation_r	knee_angle_r	knee_adduction_r	knee_angle_r_beta	ankle_angle_r	subtalar_angle_r	mtp_angle_r	hip_flexion_l	hip_adduction_l	hip_rotation_l	knee_angle_l	knee_adduction_l	knee_angle_l_beta	ankle_angle_l	subtalar_angle_l	mtp_angle_l	lumbar_extension	lumbar_bending	lumbar_rotation	arm_flex_r	arm_add_r	arm_rot_r	elbow_flex_r	pro_sup_r	wrist_flex_r	wrist_dev_r	arm_flex_l	arm_add_l	arm_rot_l	elbow_flex_l	pro_sup_l	wrist_flex_l	wrist_dev_l
      0.40000000	     14.51640605	     -2.79654687	      1.59706144	     -2.13569091	      0.90588819	      0.07195581	    -28.00676663	     -0.78717304	    -18.09714653	      9.06460725	     13.66400287	      0.15820724	     15.11880236	     33.48722942	     -9.46330232	     16.51762717	     -3.14023543	    -11.38312551	     18.33515201	     -4.58036302	      0.32000877	     11.72361723	      8.42919614	     -9.46330232	    -31.90785866	      1.97187218	      0.95283303	     22.89987592	    -25.52981869	     11.66475816	     62.98655455	     90.00000001	      0.00000000	      0.00000000	     -5.33241797	     -9.49429929	      7.18313548	     35.98416150	     90.00000001	      0.00000000	      0.00000000
      0.41000000	     14.41533344	     -2.92497082	      1.64007561	     -2.12708410	      0.90470478	      0.07079944	    -28.39399646	     -0.80893189	    -17.86125704	      9.31806509	     13.65514798	      0.16263092	     15.11282415	     33.51039722	     -9.45694000	     16.57491683	     -3.09476844	    -11.45443631	     18.39813938	     -4.64089259	      0.32110811	     11.77696229	      8.35196497	     -9.45694000	    -31.76298732	      2.12405031	      0.90765307	     23.16054218	    -25.60466333	     11.58759756	     63.11973668	     90.00000001	      0.00000000	      0.00000000	     -5.56852976	     -9.49990864	      7.22263189	     35.83401568	     90.00000001	      0.00000000	      0.00000000
      0.42000000	     14.40941350	     -3.00730447	      1.59645540	     -2.11854186	      0.90374563	      0.06964439	    -28.80508390	     -0.94888104	    -17.51386285	      9.71642881	     13.63403217	      0.16958367	     15.16013537	     33.58549106	     -9.44526322	     16.52769656	     -2.99817666	    -11.51875646	     18.93222071	     -4.78170008	      0.33042959	     12.02394459	      8.08146746	     -9.44526322	    -31.77058591	      2.19173281	      0.88213918	     23.45018908	    -25.67780399	     11.53652976	     63.28164590	     90.00000001	      0.00000000	      0.00000000	     -5.77552585	     -9.50829087	      7.43858124	     35.37422540	     90.00000001	      0.00000000	      0.00000000
      0.43000000	     14.29143631	     -3.05579236	      1.48498094	     -2.10977730	      0.90264344	      0.06855416	    -29.06229518	     -1.15732609	    -17.27506075	     10.24657488	     13.59051998	      0.17883647	     15.29270659	     33.65134883	     -9.42716260	     16.61993732	     -2.91929664	    -11.64030124	     19.97360737	     -4.81686583	      0.34860521	     12.50748438	      7.47608851	     -9.42716260	    -31.61954954	      2.19081112	      0.95858476	     23.55678975	    -25.74345099	     11.48131794	     63.35389622	     90.00000001	      0.00000000	      0.00000000	     -5.87970255	     -9.45914687	      7.94677810	     34.58408546	     90.00000001	      0.00000000	      0.00000000
      0.44000000	     14.06824800	     -3.18898581	      1.37670930	     -2.10085781	      0.90132535	      0.06749011	    -29.18686394	     -1.28350865	    -17.25812240	     10.88697265	     13.51811064	      0.19001352	     15.54358854	     33.84660277	     -9.40007027	     16.87254690	     -2.96423847	    -11.81340158	     21.42081108	     -4.80031787	      0.37386368	     13.20295980	      6.43558060	     -9.40007027	    -31.33546776	      2.26608970	      1.12078527	     23.51135140	    -25.83299851	     11.27264299	     63.39245417	     90.00000001	      0.00000000	      0.00000000	     -5.92285583	     -9.51961493	      8.74139035	     33.64906932	     90.00000001	      0.00000000	      0.00000000
      0.45000000	     13.91289988	     -3.25861340	      1.25135391	     -2.09194909	      0.90029033	      0.06632962	    -29.34627548	     -1.45107912	    -17.12125024	     11.51497312	     13.32543912	      0.20097419	     15.63619564	     34.15675029	     -9.38182136	     16.85232415	     -2.89483360	    -11.62530946	     22.70929077	     -4.71087997	      0.39635189	     13.64466149	      5.63271568	     -9.38182136	    -31.16587618	      2.27078458	      1.25104395	     23.41952124	    -25.83206037	     11.00788187	     63.41114310	     90.00000001	      0.00000000	      0.00000000	     -5.94597870	     -9.59797079	      9.20701393	     33.26132463	     90.00000001	      0.00000000	      0.00000000
      0.46000000	     13.67476099	     -3.32607114	      1.19067998	     -2.08288436	      0.89915787	      0.06518231	    -29.34896901	     -1.51961879	    -17.72212861	     12.42790537	     12.79721159	      0.21690787	     15.89930257	     35.28063399	     -9.27034134	     16.79295455	     -2.77055926	    -10.89207419	     23.91588604	     -4.40649591	      0.41741095	     13.85319667	      3.47412169	     -9.27034134	    -30.87959407	      2.28542461	      1.41364280	     23.12777830	    -25.82133977	     10.56047082	     63.45573219	     90.00000001	      0.00000000	      0.00000000	     -5.89169840	     -9.90338952	     10.00427618	     33.26581435	     90.00000001	      0.00000000	      0.00000000
      0.47000000	     13.46257167	     -3.29365621	      0.97714104	     -2.07366586	      0.89818978	      0.06401464	    -29.44665783	     -1.87144247	    -17.50420406	     13.11250775	     12.72587516	      0.22885643	     15.89720889	     35.30139568	     -9.25168218	     16.65084218	     -2.62146149	    -10.92743810	     25.09319628	     -4.27258538	      0.43795889	     14.28972985	      2.65237949	     -9.25168218	    -30.62671143	      2.15225723	      1.59437315	     22.87263992	    -25.77634792	     10.25307016	     63.31522064	     90.00000001	      0.00000000	      0.00000000	     -5.72313938	    -10.03752033	      9.64981609	     33.43735380	     90.00000001	      0.00000000	      0.00000000
      0.48000000	     13.22950667	     -3.31012885	      0.87680716	     -2.06445043	      0.89732064	      0.06273699	    -29.47886711	     -2.02244295	    -17.59248975	     13.86441582	     12.35388289	      0.24197970	     16.10610241	     35.67830635	     -9.17982707	     16.47771297	     -2.48132918	    -10.57953472	     26.12345144	     -4.03919071	      0.45594024	     14.32332416	      1.16660961	     -9.17982707	    -30.37486262	      2.10118720	      1.69629277	     22.51392357	    -25.67060161	      9.84336803	     63.19224214	     90.00000001	      0.00000000	      0.00000000	     -5.43417349	    -10.02666315	      8.28299027	     33.67563232	     90.00000001	      0.00000000	      0.00000000
      0.49000000	     13.01406171	     -3.22887774	      0.62442806	     -2.05504415	      0.89655853	      0.06158859	    -29.52716550	     -2.39744711	    -17.39326691	     14.60950763	     12.17457133	      0.25498401	     15.93965828	     35.60287801	     -9.16227650	     16.24666832	     -2.33790414	    -10.87463088	     27.04792396	     -3.93037094	      0.47207533	     14.71887130	      0.43823226	     -9.16227650	    -30.12042402	      1.88738152	      1.90948817	     22.11695407	    -25.59524963	      9.52162116	     62.92936252	     90.00000001	      0.00000000	      0.00000000	     -5.14853455	    -10.20908937	      7.76571651	     34.12538468	     90.00000001	      0.00000000	      0.00000000
      0.50000000	     12.81241007	     -3.17332830	      0.43242044	     -2.04562687	      0.89591481	      0.06035558	    -29.54288483	     -2.70417938	    -17.24956902	     15.43496757	     11.94787259	      0.26939100	     15.84721185	     35.54688579	     -9.14569162	     16.04278717	     -2.25989913	    -11.22676616	     27.92411968	     -3.84686927	      0.48736783	     14.85482988	     -0.16371773	     -9.14569162	    -29.89911428	      1.70942340	      2.07194267	     21.62775635	    -25.45746428	      9.15144758	     62.64552316	     90.00000001	      0.00000000	      0.00000000	     -4.82104483	    -10.36158311	      7.07927072	     34.53359927	     90.00000001	      0.00000000	      0.00000000
      0.51000000	     12.64342380	     -3.04247886	      0.25753879	     -2.03610093	      0.89545354	      0.05908948	    -29.55217314	     -3.02943381	    -17.29195980	     16.34475985	     11.54316549	      0.28526987	     15.79964113	     35.58404244	     -9.11243093	     15.81801912	     -2.09370249	    -11.78699746	     28.66663726	     -3.95043123	      0.50032721	     14.82538209	     -0.71946533	     -9.11243093	    -29.71290230	      1.44168656	      2.18565492	     21.07077001	    -25.25410542	      8.71733856	     62.33318544	     90.00000001	      0.00000000	      0.00000000	     -4.43527379	    -10.40102230	      5.94796027	     34.79526153	     90.00000001	      0.00000000	      0.00000000
      0.52000000	     12.51251528	     -2.93829156	      0.09499488	     -2.02663384	      0.89515382	      0.05774139	    -29.56423673	     -3.40413476	    -17.08988676	     17.29800412	     11.39112153	      0.30190713	     15.44790163	     35.50434814	     -9.09738309	     15.58540827	     -2.08187894	    -12.14246505	     29.40153877	     -3.75499052	      0.51315366	     14.74701299	     -0.92445856	     -9.09738309	    -29.58969469	      1.20982503	      2.27045640	     20.53166118	    -25.11060146	      8.52899699	     61.90949026	     90.00000001	      0.00000000	      0.00000000	     -4.04543096	    -10.54107564	      5.51449537	     34.88979228	     90.00000001	      0.00000000	      0.00000000
      0.53000000	     12.42106370	     -2.80404896	     -0.05024830	     -2.01707855	      0.89503162	      0.05637954	    -29.55965785	     -3.74169886	    -16.86456113	     18.29377504	     11.08480558	      0.31928661	     15.02928981	     35.35551212	     -9.08578921	     15.34896792	     -2.01522225	    -12.47953256	     30.11970489	     -3.70203058	      0.52568802	     14.57153638	     -1.06441962	     -9.08578921	    -29.50450848	      0.92471949	      2.33864714	     19.92824580	    -24.97770547	      8.34099888	     61.47197616	     90.00000001	      0.00000000	      0.00000000	     -3.65500539	    -10.69254057	      5.18775312	     34.90790759	     90.00000001	      0.00000000	      0.00000000
      0.54000000	     12.40971952	     -2.65558419	     -0.23424306	     -2.00734339	      0.89512619	      0.05511956	    -29.53773923	     -4.17182667	    -16.83200514	     19.60159958	     10.80322655	      0.34211245	     14.41035742	     35.08927108	     -9.07003870	     15.05248446	     -2.03446820	    -13.04750773	     30.86237399	     -3.61533103	      0.53865004	     14.29363659	     -1.25291317	     -9.07003870	    -29.48645690	      0.59542296	      2.40834405	     19.24933987	    -24.75554021	      8.08998756	     60.97563315	     90.00000001	      0.00000000	      0.00000000	     -3.24266331	    -10.80540402	      4.86917778	     34.76014605	     90.00000001	      0.00000000	      0.00000000
